<svg xmlns="http://www.w3.org/2000/svg" xmlns:xlink="http://www.w3.org/1999/xlink" width="47.77" height="61" viewBox="0 0 47.77 61">
  <defs>
    <filter id="Path_38534" x="0" y="0" width="47.77" height="61" filterUnits="userSpaceOnUse">
      <feOffset dy="3" input="SourceAlpha"/>
      <feGaussianBlur stdDeviation="3" result="blur"/>
      <feFlood flood-opacity="0.161"/>
      <feComposite operator="in" in2="blur"/>
      <feComposite in="SourceGraphic"/>
    </filter>
  </defs>
  <g id="Component_10_2" data-name="Component 10 – 2" transform="translate(9 6)">
    <g transform="matrix(1, 0, 0, 1, -9, -6)" filter="url(#Path_38534)">
      <path id="Path_38534-2" data-name="Path 38534" d="M5306.616,870.29l-1.653-1.654,1.653-1.654,1.654,1.654Zm3.308,3.308,1.654-1.654-1.654-1.654-1.653,1.654Zm-4.961-1.654-1.654-1.654-1.653,1.654,1.653,1.654Zm8.269,4.962,1.654-1.654-1.654-1.654-1.654,1.654Zm-11.577-1.654L5300,873.6l-1.653,1.654,1.653,1.654Zm4.961,8.269,1.654-1.654-1.654-1.654-1.653,1.654Zm6.616,3.308h0l-1.653,1.654,1.653,1.654h0l1.654-1.654Zm3.308-6.615,1.654-1.654-1.654-1.654-1.654,1.654Zm-14.884-1.654,1.653,1.654,1.654-1.654-1.654-1.654Zm21.5,11.578h0l-1.653,1.654,1.653,1.654h0l1.654-1.654-1.654-1.654Zm4.962-1.655-1.654-1.654h0l-1.654,1.654,1.654,1.654h0Zm-8.27,4.962h0l-1.653,1.654,1.653,1.654h0l1.654-1.654-1.654-1.654Zm-14.883-18.193,1.653,1.654,1.654-1.654-1.654-1.654Zm3.308,3.308,1.653,1.654,1.654-1.654-1.654-1.654Zm0,6.615,1.653,1.654,1.654-1.654-1.654-1.654Zm3.308-3.308,1.654,1.654,1.654-1.654-1.654-1.654Zm-4.963,11.577-1.654,1.654,1.654,1.654,1.654-1.654Zm4.962,4.961-1.654-1.654-1.654,1.654,1.654,1.654Zm9.923-13.231,1.653,1.654h0l1.654-1.654-1.654-1.654h0Zm-4.961,1.653h0l1.654-1.654-1.654-1.654h0l-1.654,1.654,1.654,1.654Zm-13.231,13.232,1.654-1.654-1.654-1.654-1.653,1.654Zm4.961,1.654-1.654-1.654-1.654,1.654,1.654,1.654Zm-3.308,6.615,1.654,1.654,1.654-1.654-1.654-1.654Zm3.308-3.308,1.654,1.654,1.654-1.654-1.654-1.654Zm6.616-6.615,1.654,1.654,1.654-1.654-1.654-1.654Zm-3.308,3.308,1.653,1.654,1.654-1.654-1.654-1.654Zm-8.27,1.654-1.653,1.654,1.653,1.654,1.654-1.654ZM5300,900.059l-1.654,1.654,1.654,1.654,1.654-1.654Zm16.539-6.616h0l1.654-1.654-1.654-1.654h0l-1.654,1.654,1.654,1.654Zm-1.654,1.655-1.654-1.654-1.653,1.654,1.653,1.654Zm-4.962-4.962-1.654,1.654,1.654,1.654,1.654-1.654Zm9.924,0h0l1.654-1.654-1.654-1.654h0l-1.653,1.654,1.653,1.654Zm-1.654-8.268,1.653,1.654h0l1.654-1.654-1.654-1.654h0Z" transform="translate(-5289.35 -860.98)" fill="#fff"/>
    </g>
  </g>
</svg>
