<svg id="TGP_Logo_Black" data-name="TGP Logo Black" xmlns="http://www.w3.org/2000/svg" width="138" height="58.141" viewBox="0 0 138 58.141">
  <g id="Group_17046" data-name="Group 17046" transform="translate(-140 -101.252)">
    <path id="Path_1" data-name="Path 1" d="M972.767,1364.679h5.744v28.012H969.58v-5.233h3.187Z" transform="translate(-758.846 -1233.299)" fill="#232323"/>
    <g id="Group_1" data-name="Group 1" transform="translate(157.606 124.298)">
      <path id="Path_2" data-name="Path 2" d="M683.558,1325.214H673.524v27.148h6.1v-8.656h3.935a9.25,9.25,0,1,0,0-18.492Zm-.158,12.748h-3.776v-7H683.4a3.5,3.5,0,0,1,0,7Z" transform="translate(-673.524 -1325.214)" fill="#232323"/>
      <path id="Path_3" data-name="Path 3" d="M804.9,1365.914v-2.674h-5.744v20.066H804.9v-9.365c0-3.094,1.951-5.1,5.544-5.112a.381.381,0,0,1,.043,0v-5.9A6.953,6.953,0,0,0,804.9,1365.914Z" transform="translate(-776.609 -1356.158)" fill="#232323"/>
      <path id="Path_4" data-name="Path 4" d="M1045.945,1372.634a10.826,10.826,0,1,0-10.82,10.427,10.682,10.682,0,0,0,10.427-7h-6.1a4.862,4.862,0,0,1-4.21,2.008,4.788,4.788,0,0,1-4.8-3.66h15.344A8.691,8.691,0,0,0,1045.945,1372.634Zm-15.462-2.046a4.8,4.8,0,0,1,9.285,0Z" transform="translate(-961.357 -1355.441)" fill="#232323"/>
      <path id="Path_5" data-name="Path 5" d="M1163.162,1377.512a4.957,4.957,0,1,1,4.485-7h6.1a10.509,10.509,0,1,0,0,4.092h-6.1A4.818,4.818,0,0,1,1163.162,1377.512Z" transform="translate(-1066.417 -1355.441)" fill="#232323"/>
      <path id="Path_6" data-name="Path 6" d="M1280.375,1342.926v-5.232h-4.76v-5.9h-5.744v5.9h-3.5v5.232h3.5v14.833h10.5v-5.234h-4.76v-9.6Z" transform="translate(-1159.98 -1330.612)" fill="#232323"/>
    </g>
    <g id="Group_98" data-name="Group 98">
      <path id="Path_7" data-name="Path 7" d="M771.7,1208.867v15.541h-5.311v-2.833c-1.888,2.125-4.761,3.3-8.734,3.3-8.183,0-14.36-6.059-14.36-14.046s6.177-14.046,14.36-14.046c6.61,0,12.079,3.974,13.456,9.443H764.3a7.517,7.517,0,0,0-6.649-3.58,8.184,8.184,0,0,0,0,16.367,7.73,7.73,0,0,0,7.357-4.643h-7.082v-5.508Z" transform="translate(-573.167 -1095.537)" fill="#232323"/>
      <path id="Path_8" data-name="Path 8" d="M905.748,1246.757a10.824,10.824,0,1,1,10.819,10.5A10.431,10.431,0,0,1,905.748,1246.757Zm15.737,0a4.918,4.918,0,1,0-4.918,4.957A4.808,4.808,0,0,0,921.485,1246.757Z" transform="translate(-706.469 -1127.918)" fill="#232323"/>
    </g>
    <path id="Path_9" data-name="Path 9" d="M862.294,1372.556a10.824,10.824,0,1,1,10.819,10.5A10.431,10.431,0,0,1,862.294,1372.556Zm15.737,0a4.918,4.918,0,1,0-4.918,4.957A4.808,4.808,0,0,0,878.031,1372.556Z" transform="translate(-670.813 -1231.143)" fill="#232323"/>
    <g id="Group_2" data-name="Group 2" transform="translate(140 107.366)">
      <path id="Path_10" data-name="Path 10" d="M580.06,1243.058v4.82h1.918v2.628h-4.8v-7.448h-1.758v-2.627h1.758v-2.963h2.884v2.963h2.246v2.627Z" transform="translate(-575.418 -1236.282)" fill="#232323"/>
      <path id="Path_11" data-name="Path 11" d="M624.607,1238.606v6.48h-2.884v-5.512a1.857,1.857,0,0,0-1.936-2.015,1.96,1.96,0,0,0-2.094,2.054v5.472h-2.884v-14.224h2.884v5.334a3.842,3.842,0,0,1,3.062-1.422A3.624,3.624,0,0,1,624.607,1238.606Z" transform="translate(-607.739 -1230.862)" fill="#232323"/>
      <path id="Path_12" data-name="Path 12" d="M679.349,1258.869h-7.713a2.406,2.406,0,0,0,2.413,1.839,2.445,2.445,0,0,0,2.116-1.009h3.065a5.369,5.369,0,0,1-5.241,3.52,5.283,5.283,0,1,1,5.439-5.241A4.374,4.374,0,0,1,679.349,1258.869Zm-7.693-1.918h4.667a2.413,2.413,0,0,0-4.667,0Z" transform="translate(-651.838 -1248.748)" fill="#232323"/>
    </g>
    <rect id="Rectangle_5" data-name="Rectangle 5" width="7.067" height="7.067" transform="translate(219.665 124.313)" fill="#00e546"/>
  </g>
</svg>
