<svg id="TGP.Logo" xmlns="http://www.w3.org/2000/svg" width="524.274" height="655.607" viewBox="0 0 524.274 655.607">
  <g id="Group_11" data-name="Group 11">
    <g id="Group_10" data-name="Group 10">
      <g id="Group_8" data-name="Group 8" transform="translate(37.051 332.413)">
        <path id="Path_16" data-name="Path 16" d="M42.832-1027.172H-76.617v323.194H-4.01V-807.032H42.832c64.627,0,113.335-47.3,113.335-110.06C156.167-979.872,107.459-1027.172,42.832-1027.172ZM40.946-875.41H-4.01v-83.383H40.946c23.422,0,40.75,17.8,40.75,41.7C81.7-893.69,64.368-875.41,40.946-875.41Z" transform="translate(76.617 1027.172)" fill="#232323"/>
      </g>
      <path id="Path_17" data-name="Path 17" d="M402.615-1143.033v185.011h-63.23v-33.724C316.9-966.454,282.709-952.4,235.4-952.4c-97.423,0-170.96-72.13-170.96-167.211s73.537-167.213,170.96-167.213c78.689,0,143.793,47.307,160.186,112.412H314.561c-14.99-25.76-44.03-42.624-79.158-42.624-54.8,0-96.487,41.688-96.487,97.425s41.686,97.422,96.487,97.422c40.75,0,74.473-22.482,87.587-55.269H238.683v-65.572Z" transform="translate(121.66 1344.875)" fill="#232323"/>
      <g id="Group_9" data-name="Group 9">
        <path id="Path_18" data-name="Path 18" d="M-10.621-1220.059v104.931H31.122v57.2H-73.408v-162.128h-38.274v-57.2h38.274v-64.507h62.787v64.507h48.9v57.2Z" transform="translate(111.682 1341.763)" fill="#232323"/>
      </g>
    </g>
  </g>
  <rect id="Rectangle_15" data-name="Rectangle 15" width="84.13" height="84.13" transform="translate(309.131 429.386)" fill="#00e646"/>
</svg>
